<?xml version="1.0" encoding="UTF-8"?>
<!DOCTYPE svg PUBLIC "-//W3C//DTD SVG 1.1//EN" "http://www.w3.org/Graphics/SVG/1.1/DTD/svg11.dtd">
<!-- Creator: CorelDRAW X7 -->
<svg xmlns="http://www.w3.org/2000/svg" xml:space="preserve" width="250mm" height="250mm" version="1.1" style="shape-rendering:geometricPrecision; text-rendering:geometricPrecision; image-rendering:optimizeQuality; fill-rule:evenodd; clip-rule:evenodd"
viewBox="0 0 250000 250000"
 xmlns:xlink="http://www.w3.org/1999/xlink">
 <defs>
  <style type="text/css">
   <![CDATA[
    .fil1 {fill:none}
    .fil0 {fill:#FF2B32}
   ]]>
  </style>
    <clipPath id="id0">
     <path d="M82590 183278c39755,0 77728,-29609 83185,-68024 2167,-15250 101,-28439 9324,-40629 17770,-23487 42730,-18850 74451,-18704 0,-5010 450,-8384 450,-13501 -35284,-783 -63752,-5481 -86342,24365 -16425,21699 -5012,38981 -17912,64893 -29278,58805 -121692,45631 -131090,-22224 -6614,-47754 35097,-88728 85750,-77650 7117,1557 9961,3762 12336,4316 565,-2117 5071,-8646 5400,-12601 -39585,-20946 -101429,254 -115749,56611 -12562,49441 25824,103148 80197,103148z"/>
    </clipPath>
    <clipPath id="id1">
     <path d="M83490 143226c-42195,0 -61610,-57060 -21520,-81373 8427,-5111 20266,-7033 29966,-4928 1617,351 3161,835 4960,1340 1594,448 2992,1210 5045,1256 551,-2062 4244,-7185 5401,-12151 -8022,-4244 -15721,-4950 -25652,-4950 -29729,0 -55353,26921 -55353,54903 0,10297 1011,17877 5398,26554 5058,10002 7160,12411 14740,19462 8092,7529 22758,13388 34315,13388 16350,0 26549,-3023 38452,-11951 3601,-2700 4645,-4315 6883,-6618 6349,-6530 12057,-18159 13881,-27071 1330,-6499 1154,-18618 2316,-24687 2213,-11573 7211,-22110 14452,-30999 4049,-4970 9009,-9503 14287,-13165l8430 -5071c4800,-2398 11607,-4721 17063,-5889 10179,-2178 32497,-1457 44446,-1457 3594,1 6077,-207 9000,-450l0 -11706c-285,-2767 -1432,-1820 -5399,-1796l-14404 4c-1795,-98 -2108,-376 -3825,-453l-4300 0c-9782,185 -24778,1396 -31931,3145 -13115,3208 -22047,8311 -31758,15945l-5253 4647c-9500,9608 -18259,21818 -22132,35472 -2056,7248 -2086,8844 -3156,16196 -1535,10552 -487,17616 -5197,28554 -1163,2701 -6495,9552 -8230,11121 -8613,7787 -18505,12728 -30925,12728z"/>
    </clipPath>
    <clipPath id="id2">
     <path d="M153244 234565l13951 0 0 -94939 9451 -450c3399,0 6992,-116 10365,-15l9886 465c14817,0 24671,553 36901,-8101 2360,-1671 4451,-3203 5851,-5850l-69754 0c-755,1573 -1330,3338 -1964,5236 -1317,3946 -4928,11305 -6946,14655 -7815,12973 -7741,6344 -7741,21062l0 67937z"/>
    </clipPath>
    <clipPath id="id3">
     <path d="M173046 113074l74704 0c926,-3976 2250,-9104 2250,-13501l-76505 0c0,5010 -449,8385 -449,13501z"/>
    </clipPath>
    <clipPath id="id4">
     <path d="M127143 178328l449 56254 13544 -17 -43 -64787c-2124,177 -3670,1989 -7019,4231l-6931 4319z"/>
    </clipPath>
 </defs>
 <g id="Layer_x0020_1">
  <metadata id="CorelCorpID_0Corel-Layer"/>
  <g id="_308831240">
   <path class="fil0" d="M82590 183278c39755,0 77728,-29609 83185,-68024 2167,-15250 101,-28439 9324,-40629 17770,-23487 42730,-18850 74451,-18704 0,-5010 450,-8384 450,-13501 -35284,-783 -63752,-5481 -86342,24365 -16425,21699 -5012,38981 -17912,64893 -29278,58805 -121692,45631 -131090,-22224 -6614,-47754 35097,-88728 85750,-77650 7117,1557 9961,3762 12336,4316 565,-2117 5071,-8646 5400,-12601 -39585,-20946 -101429,254 -115749,56611 -12562,49441 25824,103148 80197,103148z"/>
   <g style="clip-path:url(#id0)">
    <g>
     <polygon id="1" class="fil0" points="-83333,-83333 333333,-83333 333333,333333 -83333,333333 "/>
    </g>
   </g>
   <path class="fil1" d="M82590 183278c39755,0 77728,-29609 83185,-68024 2167,-15250 101,-28439 9324,-40629 17770,-23487 42730,-18850 74451,-18704 0,-5010 450,-8384 450,-13501 -35284,-783 -63752,-5481 -86342,24365 -16425,21699 -5012,38981 -17912,64893 -29278,58805 -121692,45631 -131090,-22224 -6614,-47754 35097,-88728 85750,-77650 7117,1557 9961,3762 12336,4316 565,-2117 5071,-8646 5400,-12601 -39585,-20946 -101429,254 -115749,56611 -12562,49441 25824,103148 80197,103148z"/>
   <path class="fil0" d="M83490 143226c-42195,0 -61610,-57060 -21520,-81373 8427,-5111 20266,-7033 29966,-4928 1617,351 3161,835 4960,1340 1594,448 2992,1210 5045,1256 551,-2062 4244,-7185 5401,-12151 -8022,-4244 -15721,-4950 -25652,-4950 -29729,0 -55353,26921 -55353,54903 0,10297 1011,17877 5398,26554 5058,10002 7160,12411 14740,19462 8092,7529 22758,13388 34315,13388 16350,0 26549,-3023 38452,-11951 3601,-2700 4645,-4315 6883,-6618 6349,-6530 12057,-18159 13881,-27071 1330,-6499 1154,-18618 2316,-24687 2213,-11573 7211,-22110 14452,-30999 4049,-4970 9009,-9503 14287,-13165l8430 -5071c4800,-2398 11607,-4721 17063,-5889 10179,-2178 32497,-1457 44446,-1457 3594,1 6077,-207 9000,-450l0 -11706c-285,-2767 -1432,-1820 -5399,-1796l-14404 4c-1795,-98 -2108,-376 -3825,-453l-4300 0c-9782,185 -24778,1396 -31931,3145 -13115,3208 -22047,8311 -31758,15945l-5253 4647c-9500,9608 -18259,21818 -22132,35472 -2056,7248 -2086,8844 -3156,16196 -1535,10552 -487,17616 -5197,28554 -1163,2701 -6495,9552 -8230,11121 -8613,7787 -18505,12728 -30925,12728z"/>
   <g style="clip-path:url(#id1)">
    <g>
     <polygon id="1" class="fil0" points="-83333,-83333 333333,-83333 333333,333333 -83333,333333 "/>
    </g>
   </g>
   <path class="fil1" d="M83490 143226c-42195,0 -61610,-57060 -21520,-81373 8427,-5111 20266,-7033 29966,-4928 1617,351 3161,835 4960,1340 1594,448 2992,1210 5045,1256 551,-2062 4244,-7185 5401,-12151 -8022,-4244 -15721,-4950 -25652,-4950 -29729,0 -55353,26921 -55353,54903 0,10297 1011,17877 5398,26554 5058,10002 7160,12411 14740,19462 8092,7529 22758,13388 34315,13388 16350,0 26549,-3023 38452,-11951 3601,-2700 4645,-4315 6883,-6618 6349,-6530 12057,-18159 13881,-27071 1330,-6499 1154,-18618 2316,-24687 2213,-11573 7211,-22110 14452,-30999 4049,-4970 9009,-9503 14287,-13165l8430 -5071c4800,-2398 11607,-4721 17063,-5889 10179,-2178 32497,-1457 44446,-1457 3594,1 6077,-207 9000,-450l0 -11706c-285,-2767 -1432,-1820 -5399,-1796l-14404 4c-1795,-98 -2108,-376 -3825,-453l-4300 0c-9782,185 -24778,1396 -31931,3145 -13115,3208 -22047,8311 -31758,15945l-5253 4647c-9500,9608 -18259,21818 -22132,35472 -2056,7248 -2086,8844 -3156,16196 -1535,10552 -487,17616 -5197,28554 -1163,2701 -6495,9552 -8230,11121 -8613,7787 -18505,12728 -30925,12728z"/>
   <path class="fil0" d="M153244 234565l13951 0 0 -94939 9451 -450c3399,0 6992,-116 10365,-15l9886 465c14817,0 24671,553 36901,-8101 2360,-1671 4451,-3203 5851,-5850l-69754 0c-755,1573 -1330,3338 -1964,5236 -1317,3946 -4928,11305 -6946,14655 -7815,12973 -7741,6344 -7741,21062l0 67937z"/>
   <g style="clip-path:url(#id2)">
    <g>
     <polygon id="1" class="fil0" points="-83333,-83333 333333,-83333 333333,333333 -83333,333333 "/>
    </g>
   </g>
   <path class="fil1" d="M153244 234565l13951 0 0 -94939 9451 -450c3399,0 6992,-116 10365,-15l9886 465c14817,0 24671,553 36901,-8101 2360,-1671 4451,-3203 5851,-5850l-69754 0c-755,1573 -1330,3338 -1964,5236 -1317,3946 -4928,11305 -6946,14655 -7815,12973 -7741,6344 -7741,21062l0 67937z"/>
   <path class="fil0" d="M173046 113074l74704 0c926,-3976 2250,-9104 2250,-13501l-76505 0c0,5010 -449,8385 -449,13501z"/>
   <g style="clip-path:url(#id3)">
    <g>
     <polygon id="1" class="fil0" points="-83333,-83333 333333,-83333 333333,333333 -83333,333333 "/>
    </g>
   </g>
   <path class="fil1" d="M173046 113074l74704 0c926,-3976 2250,-9104 2250,-13501l-76505 0c0,5010 -449,8385 -449,13501z"/>
   <path class="fil0" d="M127143 178328l449 56254 13544 -17 -43 -64787c-2124,177 -3670,1989 -7019,4231l-6931 4319z"/>
   <g style="clip-path:url(#id4)">
    <g>
     <polygon id="1" class="fil0" points="-83333,-83333 333333,-83333 333333,333333 -83333,333333 "/>
    </g>
   </g>
   <path class="fil1" d="M127143 178328l449 56254 13544 -17 -43 -64787c-2124,177 -3670,1989 -7019,4231l-6931 4319z"/>
  </g>
 </g>
</svg>
