<?xml version="1.0" encoding="UTF-8"?>
<!DOCTYPE svg PUBLIC "-//W3C//DTD SVG 1.1//EN" "http://www.w3.org/Graphics/SVG/1.1/DTD/svg11.dtd">
<!-- Creator: CorelDRAW X7 -->
<svg xmlns="http://www.w3.org/2000/svg" xml:space="preserve" width="250mm" height="250mm" version="1.1" style="shape-rendering:geometricPrecision; text-rendering:geometricPrecision; image-rendering:optimizeQuality; fill-rule:evenodd; clip-rule:evenodd"
viewBox="0 0 250000 250000"
 xmlns:xlink="http://www.w3.org/1999/xlink">
 <defs>
  <style type="text/css">
   <![CDATA[
    .fil1 {fill:none}
    .fil0 {fill:#FF2B32}
   ]]>
  </style>
    <clipPath id="id0">
     <path d="M114355 139629c9979,0 19510,-7433 20880,-17075 544,-3828 25,-7139 2340,-10199 4461,-5895 10726,-4731 18688,-4695 0,-1257 113,-2104 113,-3388 -8856,-197 -16002,-1376 -21672,6115 -4123,5447 -1258,9785 -4497,16289 -7349,14761 -30546,11454 -32905,-5578 -1660,-11987 8810,-22272 21525,-19491 1786,391 2500,944 3096,1083 142,-531 1273,-2170 1356,-3163 -9937,-5257 -25460,64 -29055,14210 -3153,12410 6482,25892 20131,25892z"/>
    </clipPath>
    <clipPath id="id1">
     <path d="M114581 129575c-10592,0 -15465,-14323 -5402,-20426 2115,-1282 5087,-1765 7522,-1237 405,88 793,210 1245,337 400,112 751,304 1266,315 138,-517 1065,-1803 1356,-3050 -2014,-1065 -3947,-1242 -6439,-1242 -7463,0 -13895,6757 -13895,13781 0,2584 254,4487 1356,6665 1269,2511 1797,3115 3699,4885 2031,1890 5713,3361 8614,3361 4104,0 6664,-759 9652,-3000 903,-678 1166,-1083 1727,-1661 1594,-1639 3027,-4558 3485,-6795 334,-1632 289,-4674 581,-6197 556,-2905 1810,-5550 3628,-7781 1016,-1248 2261,-2386 3586,-3305l2116 -1272c1205,-603 2913,-1185 4283,-1479 2555,-546 8157,-365 11156,-365 902,0 1526,-52 2259,-113l0 -2939c-71,-694 -359,-457 -1355,-451l-3615 1c-451,-24 -530,-94 -961,-113l-1079 0c-2455,46 -6219,350 -8015,789 -3292,805 -5534,2086 -7972,4002l-1318 1167c-2385,2412 -4583,5476 -5555,8904 -517,1819 -524,2220 -793,4065 -385,2649 -122,4422 -1304,7168 -292,677 -1630,2397 -2066,2791 -2162,1955 -4645,3195 -7762,3195z"/>
    </clipPath>
    <clipPath id="id2">
     <path d="M132090 152502l3501 0 0 -23831 2373 -113c853,0 1755,-29 2601,-3l2482 116c3719,0 6193,139 9262,-2033 593,-420 1118,-804 1469,-1469l-17509 0c-189,395 -334,838 -493,1315 -331,990 -1237,2837 -1743,3678 -1962,3257 -1943,1593 -1943,5287l0 17053z"/>
    </clipPath>
    <clipPath id="id3">
     <path d="M137060 122006l18752 0c232,-998 564,-2285 564,-3388l-19203 0c0,1257 -113,2104 -113,3388z"/>
    </clipPath>
    <clipPath id="id4">
     <path d="M125538 138386l113 14120 3399 -4 -10 -16262c-534,44 -922,499 -1762,1062l-1740 1084z"/>
    </clipPath>
 </defs>
 <g id="Layer_x0020_1">
  <metadata id="CorelCorpID_0Corel-Layer"/>
  <g id="_258046344">
   <path class="fil0" d="M114355 139629c9979,0 19510,-7433 20880,-17075 544,-3828 25,-7139 2340,-10199 4461,-5895 10726,-4731 18688,-4695 0,-1257 113,-2104 113,-3388 -8856,-197 -16002,-1376 -21672,6115 -4123,5447 -1258,9785 -4497,16289 -7349,14761 -30546,11454 -32905,-5578 -1660,-11987 8810,-22272 21525,-19491 1786,391 2500,944 3096,1083 142,-531 1273,-2170 1356,-3163 -9937,-5257 -25460,64 -29055,14210 -3153,12410 6482,25892 20131,25892z"/>
   <g style="clip-path:url(#id0)">
    <g>
     <polygon id="1" class="fil0" points="72706,72706 177294,72706 177294,177294 72706,177294 "/>
    </g>
   </g>
   <path class="fil1" d="M114355 139629c9979,0 19510,-7433 20880,-17075 544,-3828 25,-7139 2340,-10199 4461,-5895 10726,-4731 18688,-4695 0,-1257 113,-2104 113,-3388 -8856,-197 -16002,-1376 -21672,6115 -4123,5447 -1258,9785 -4497,16289 -7349,14761 -30546,11454 -32905,-5578 -1660,-11987 8810,-22272 21525,-19491 1786,391 2500,944 3096,1083 142,-531 1273,-2170 1356,-3163 -9937,-5257 -25460,64 -29055,14210 -3153,12410 6482,25892 20131,25892z"/>
   <path class="fil0" d="M114581 129575c-10592,0 -15465,-14323 -5402,-20426 2115,-1282 5087,-1765 7522,-1237 405,88 793,210 1245,337 400,112 751,304 1266,315 138,-517 1065,-1803 1356,-3050 -2014,-1065 -3947,-1242 -6439,-1242 -7463,0 -13895,6757 -13895,13781 0,2584 254,4487 1356,6665 1269,2511 1797,3115 3699,4885 2031,1890 5713,3361 8614,3361 4104,0 6664,-759 9652,-3000 903,-678 1166,-1083 1727,-1661 1594,-1639 3027,-4558 3485,-6795 334,-1632 289,-4674 581,-6197 556,-2905 1810,-5550 3628,-7781 1016,-1248 2261,-2386 3586,-3305l2116 -1272c1205,-603 2913,-1185 4283,-1479 2555,-546 8157,-365 11156,-365 902,0 1526,-52 2259,-113l0 -2939c-71,-694 -359,-457 -1355,-451l-3615 1c-451,-24 -530,-94 -961,-113l-1079 0c-2455,46 -6219,350 -8015,789 -3292,805 -5534,2086 -7972,4002l-1318 1167c-2385,2412 -4583,5476 -5555,8904 -517,1819 -524,2220 -793,4065 -385,2649 -122,4422 -1304,7168 -292,677 -1630,2397 -2066,2791 -2162,1955 -4645,3195 -7762,3195z"/>
   <g style="clip-path:url(#id1)">
    <g>
     <polygon id="1" class="fil0" points="72706,72706 177294,72706 177294,177294 72706,177294 "/>
    </g>
   </g>
   <path class="fil1" d="M114581 129575c-10592,0 -15465,-14323 -5402,-20426 2115,-1282 5087,-1765 7522,-1237 405,88 793,210 1245,337 400,112 751,304 1266,315 138,-517 1065,-1803 1356,-3050 -2014,-1065 -3947,-1242 -6439,-1242 -7463,0 -13895,6757 -13895,13781 0,2584 254,4487 1356,6665 1269,2511 1797,3115 3699,4885 2031,1890 5713,3361 8614,3361 4104,0 6664,-759 9652,-3000 903,-678 1166,-1083 1727,-1661 1594,-1639 3027,-4558 3485,-6795 334,-1632 289,-4674 581,-6197 556,-2905 1810,-5550 3628,-7781 1016,-1248 2261,-2386 3586,-3305l2116 -1272c1205,-603 2913,-1185 4283,-1479 2555,-546 8157,-365 11156,-365 902,0 1526,-52 2259,-113l0 -2939c-71,-694 -359,-457 -1355,-451l-3615 1c-451,-24 -530,-94 -961,-113l-1079 0c-2455,46 -6219,350 -8015,789 -3292,805 -5534,2086 -7972,4002l-1318 1167c-2385,2412 -4583,5476 -5555,8904 -517,1819 -524,2220 -793,4065 -385,2649 -122,4422 -1304,7168 -292,677 -1630,2397 -2066,2791 -2162,1955 -4645,3195 -7762,3195z"/>
   <path class="fil0" d="M132090 152502l3501 0 0 -23831 2373 -113c853,0 1755,-29 2601,-3l2482 116c3719,0 6193,139 9262,-2033 593,-420 1118,-804 1469,-1469l-17509 0c-189,395 -334,838 -493,1315 -331,990 -1237,2837 -1743,3678 -1962,3257 -1943,1593 -1943,5287l0 17053z"/>
   <g style="clip-path:url(#id2)">
    <g>
     <polygon id="1" class="fil0" points="72706,72706 177294,72706 177294,177294 72706,177294 "/>
    </g>
   </g>
   <path class="fil1" d="M132090 152502l3501 0 0 -23831 2373 -113c853,0 1755,-29 2601,-3l2482 116c3719,0 6193,139 9262,-2033 593,-420 1118,-804 1469,-1469l-17509 0c-189,395 -334,838 -493,1315 -331,990 -1237,2837 -1743,3678 -1962,3257 -1943,1593 -1943,5287l0 17053z"/>
   <path class="fil0" d="M137060 122006l18752 0c232,-998 564,-2285 564,-3388l-19203 0c0,1257 -113,2104 -113,3388z"/>
   <g style="clip-path:url(#id3)">
    <g>
     <polygon id="1" class="fil0" points="72706,72706 177294,72706 177294,177294 72706,177294 "/>
    </g>
   </g>
   <path class="fil1" d="M137060 122006l18752 0c232,-998 564,-2285 564,-3388l-19203 0c0,1257 -113,2104 -113,3388z"/>
   <path class="fil0" d="M125538 138386l113 14120 3399 -4 -10 -16262c-534,44 -922,499 -1762,1062l-1740 1084z"/>
   <g style="clip-path:url(#id4)">
    <g>
     <polygon id="1" class="fil0" points="72706,72706 177294,72706 177294,177294 72706,177294 "/>
    </g>
   </g>
   <path class="fil1" d="M125538 138386l113 14120 3399 -4 -10 -16262c-534,44 -922,499 -1762,1062l-1740 1084z"/>
  </g>
 </g>
</svg>
